<svg width="91" height="91" viewBox="0 0 91 91" fill="none" xmlns="http://www.w3.org/2000/svg">
<path d="M79.8334 24.8207C79.2455 24.9463 78.6362 25.0141 78.0107 25.0141C73.2136 25.0141 69.3235 21.1252 69.3235 16.3269C69.3235 15.891 69.3562 15.4614 69.419 15.0431C65.7624 14.0194 63.0794 10.6643 63.0794 6.67996C63.0794 6.04186 63.1497 5.42133 63.2803 4.82343H15.3321C6.86471 4.82343 0 11.6881 0 20.1555V75.1179C0 83.5853 6.86471 90.4499 15.3321 90.4499H70.2944C78.7619 90.4499 85.6266 83.5853 85.6266 75.1179V27.5578C83.3442 27.4146 81.3018 26.3908 79.8334 24.8219V24.8207Z" fill="#DF3A22"/>
<path d="M84.6568 19.9973C84.0689 20.1229 83.4598 20.1907 82.8342 20.1907C78.0371 20.1907 74.1469 16.3018 74.1469 11.5034C74.1469 11.0676 74.1796 10.638 74.2424 10.2197C70.5858 9.19596 67.9028 5.84092 67.9028 1.85653C67.9028 1.21843 67.9732 0.597908 68.1039 0H20.1555C11.6881 0 4.82351 6.86465 4.82351 15.3321V70.2944C4.82351 78.7619 11.6881 85.6265 20.1555 85.6265H75.118C83.5854 85.6265 90.45 78.7619 90.45 70.2944V22.7343C88.1676 22.5911 86.1252 21.5674 84.6568 19.9985V19.9973Z" fill="white"/>
<path d="M78.3561 38.4018L82.524 38.4358C83.1897 40.9857 79.1839 39.5499 78.4378 40.7495C77.0435 58.6566 58.9443 60.0735 53.3659 43.5029L49.9442 44.2289C47.7875 62.1184 26.0555 64.2978 19.7473 47.8779L11.1041 48.6379L11.5097 46.3895L19.1959 45.0391C18.6118 23.9566 46.2965 20.5625 49.6365 41.3059L53.1071 41.3399C52.7503 37.1332 53.9173 30.7647 56.8365 27.7249C65.5125 18.6872 77.9994 27.0315 78.3398 38.3855L78.3561 38.4018ZM66.079 53.0657C79.7329 53.6912 80.1059 28.8089 68.0083 26.2063C51.7103 22.6766 52.3736 52.4414 66.079 53.0657ZM46.245 49.1466C51.5646 36.4097 38.2009 24.6851 27.2551 32.2871C20.947 36.6797 20.3151 47.1871 25.342 52.7793C31.0674 59.1477 42.8735 57.2221 46.2462 49.1466H46.245Z" fill="#FF472D"/>
<path d="M40.6177 39.8049C44.7729 38.5362 44.2503 46.2073 42.2569 46.7311C39.2837 47.5249 38.5916 40.4128 40.6177 39.8049Z" fill="#FF472D"/>
<path d="M61.0069 38.0475C65.1621 36.7814 64.6395 44.4499 62.6461 44.9737C59.6729 45.7676 58.9808 38.6555 61.0069 38.0475Z" fill="#FF472D"/>
<path d="M48.4507 66.6429C48.6203 66.7786 49.0072 69.4126 51.0346 70.0381C52.5545 70.5117 55.4097 70.1575 56.5427 68.9579C57.4534 67.9781 57.2687 64.9547 58.722 65.1054C60.326 66.1857 60.056 68.7544 59.1616 70.0884C56.1218 74.6481 47.0162 73.8216 46.3568 67.7395C46.4761 66.8602 48.0965 66.354 48.4507 66.6253V66.6442V66.6429Z" fill="#FF472D"/>
</svg>
