<svg width="1013" height="169" viewBox="0 0 1013 169" fill="none" xmlns="http://www.w3.org/2000/svg">
<path d="M447.758 134.423C446.986 133.652 445.983 133.204 444.779 133.204L396.43 134.099C399.192 91.1351 397.649 48.295 391.8 5.7942C391.584 4.57504 391.029 3.6799 390.149 3.03174C389.254 2.36815 388.282 2.04407 387.062 2.26012L363.775 5.57831C362.556 5.79436 361.661 6.24163 361.013 7.2293C360.349 8.12438 360.025 9.09662 360.241 10.3158C363.883 35.9181 365.658 61.2274 365.75 86.0735C365.75 110.92 364.639 136.198 362.324 161.939C362.216 163.251 362.664 164.362 363.435 165.165C364.207 166.06 365.303 166.476 366.522 166.476L445.35 165.165C446.57 165.165 447.557 164.732 448.329 163.853C449.101 163.081 449.44 162.078 449.44 160.982L449.101 137.463C448.992 136.244 448.668 135.256 447.789 134.485H447.758V134.439V134.423Z" fill="#FF472D"/>
<path d="M590.338 74.2526C584.365 70.8267 577.961 68.4034 571.001 66.9682C570.013 66.7522 568.887 66.5362 567.683 66.3047C563.609 65.6411 559.504 64.6537 555.106 63.4345C550.815 62.2154 547.59 60.4558 545.507 58.1409C543.732 55.61 542.976 52.4004 543.3 48.4188C543.639 44.5453 545.075 40.9033 547.729 37.6007C550.399 34.2828 554.241 32.4152 559.319 31.9522C565.831 31.8442 570.353 33.7269 573.007 37.693C575.677 41.6746 577.081 46.6286 577.297 52.5855C577.405 53.6966 577.853 54.6995 578.609 55.4557C579.504 56.1193 580.477 56.5671 581.696 56.4436L605.199 55.3325C606.31 55.2245 607.313 54.7767 608.07 53.8816C608.733 53.11 609.181 52.107 609.181 50.9032C608.749 41.9679 606.758 33.8044 603.208 26.0573C599.674 18.4337 594.057 12.137 586.31 7.18318C575.384 0.778742 563.563 -1.30448 551.078 0.778893C540.692 2.98572 532.297 7.50749 525.676 14.3595C518.948 21.2114 514.642 29.2516 512.435 38.5419C510.321 47.7087 510.892 56.9835 513.978 66.243C516.849 73.9591 520.707 79.8236 525.46 83.8052C530.321 87.8793 535.723 90.8733 541.911 92.7406C547.976 94.6079 554.488 96.2744 561.248 97.4935C562.359 97.7096 563.578 97.9259 564.674 98.1574C571.078 99.4691 575.831 102.139 578.918 106.089C582.004 110.164 582.992 115.473 581.896 122.108C580.785 127.402 578.023 131.399 573.825 133.821C569.535 136.244 564.89 137.247 559.689 136.8C551.973 135.812 546.325 132.602 542.683 126.97C539.149 121.321 537.389 114.824 537.389 107.324C537.389 106.105 536.957 105.117 536.17 104.346C535.275 103.574 534.303 103.127 533.192 103.127L509.688 103.234C508.577 103.234 507.574 103.666 506.818 104.454C505.923 105.225 505.599 106.229 505.506 107.432C505.506 118.374 507.713 128.42 512.126 137.803C516.417 147.093 523.284 154.702 532.667 160.659C543.053 166.723 553.964 169.486 565.569 168.73C577.05 167.958 587.328 164.1 596.264 157.016C605.091 150.056 610.847 140.241 613.363 127.54C615.894 113.296 613.255 100.163 605.292 88.2187C601.218 82.3698 596.14 77.7249 590.292 74.1908H590.322V74.2526H590.338Z" fill="#FF472D"/>
<path d="M491.725 50.471C490.953 49.9463 489.95 49.6685 488.746 49.6685H465.243C464.024 49.6685 463.036 49.9617 462.264 50.471C461.493 51.042 461.045 51.6439 461.045 52.4464V163.328C461.045 164.131 461.477 164.794 462.264 165.304C463.051 165.813 464.039 166.106 465.243 166.106H488.746C489.966 166.106 490.953 165.813 491.725 165.304C492.62 164.779 492.944 164.131 492.944 163.328V52.4464C492.944 51.6439 492.604 51.042 491.725 50.471Z" fill="#FF472D"/>
<path d="M463.576 0.547485H490.429C491.833 0.547485 492.959 1.67388 492.959 3.07823V26.9675C492.959 28.3719 491.833 29.4987 490.429 29.4987H463.576C462.172 29.4987 461.045 28.3719 461.045 26.9675V3.07823C461.045 1.67388 462.172 0.547485 463.576 0.547485Z" fill="#FF472D"/>
<path d="M725.047 85.9037C724.214 85.1783 723.257 84.7926 722.238 84.7926L700.155 85.7804C699.013 85.9039 698.102 86.3203 697.377 87.0611C696.667 87.8018 696.358 88.7279 696.358 89.8699C696.543 94.3298 696.513 98.8978 696.173 103.358C695.818 107.941 694.877 113.034 693.303 118.682C691.636 124.33 689.12 129.13 685.772 133.127C682.423 137.124 677.762 138.976 672.037 138.744C666.527 138.003 662.33 134.67 659.737 128.683C657.052 122.618 655.37 115.38 654.722 106.876C654.058 98.2651 653.919 89.9625 654.29 81.7679C654.66 73.5579 655.092 66.922 655.725 61.8139L713.951 62.7396C715.078 62.7396 716.035 62.3848 716.729 61.6594C717.562 60.9187 717.84 59.9776 717.933 58.851L718.303 36.829C718.257 35.687 717.856 34.7763 717.207 33.9275C716.467 33.2176 715.541 32.8164 714.399 32.8319L659.691 31.9675L663.58 9.89916C663.765 8.75716 663.549 7.83127 663.009 6.85903C662.376 6.05654 661.543 5.54721 660.493 5.254L638.734 1.25725C637.684 1.07206 636.681 1.28792 635.832 1.82805C634.891 2.46078 634.413 3.30976 634.104 4.34373C630.076 24.5293 627.098 44.9462 625.261 65.5021C624.366 74.777 624.027 84.9316 624.304 96.1664C624.428 103.08 625.014 109.87 626.033 116.553C626.033 116.707 626.064 116.815 626.095 116.954C626.758 121.028 627.576 125.071 628.595 129.068C628.703 129.516 628.857 129.979 628.95 130.426C631.851 140.18 636.45 148.482 642.839 155.365C643.595 156.198 644.413 157.016 645.231 157.788C649.228 161.584 653.842 164.485 659.089 166.522C662.33 167.572 665.818 168.282 669.598 168.683C675.139 169.054 680.417 168.606 685.417 167.264C688.009 166.554 690.54 165.628 692.963 164.455C699.969 161.013 706.111 155.921 711.204 149.115C717.408 140.504 721.606 130.874 723.828 120.256C726.035 109.639 726.791 99.052 726.189 88.5734C726.189 87.4314 725.757 86.5209 724.985 85.8882L725.062 85.8577V85.9037H725.047Z" fill="#FF472D"/>
<path d="M355.256 87.9254C355.241 86.7834 354.809 85.8729 354.053 85.2402C353.219 84.5148 352.262 84.1136 351.244 84.1291L329.16 85.1475C328.018 85.2555 327.108 85.6877 326.382 86.4285C325.672 87.1692 325.364 88.1107 325.364 89.2373C325.549 93.6972 325.518 98.2652 325.178 102.741C324.824 107.309 323.882 112.417 322.324 118.049C320.641 123.698 318.141 128.497 314.777 132.494C311.428 136.491 306.768 138.343 301.042 138.112C295.548 137.371 291.335 134.037 288.743 128.05C286.057 121.985 284.375 114.747 283.727 106.244C283.064 97.6325 282.925 89.3299 283.295 81.1353C283.681 72.9252 284.097 66.2736 284.746 61.1809L342.972 62.107C344.114 62.0916 345.04 61.7367 345.75 61.0114C346.583 60.2706 346.876 59.3291 346.969 58.2026L347.339 36.1805C347.324 35.0385 346.892 34.1282 346.244 33.2949C345.503 32.585 344.562 32.1838 343.435 32.1992L288.743 31.3349L292.632 9.26655C292.817 8.12455 292.601 7.19866 292.061 6.22642C291.412 5.42393 290.595 4.9146 289.545 4.62139L267.785 0.624264C266.736 0.439075 265.733 0.655309 264.9 1.19544C263.974 1.82817 263.48 2.66134 263.171 3.71074C259.143 23.9117 256.165 44.3135 254.313 64.8695C253.418 74.1443 253.078 84.3141 253.372 95.5334C253.557 106.845 255.007 117.818 257.662 128.451C257.77 128.929 257.909 129.362 258.032 129.809C257.353 130.828 256.643 131.784 255.887 132.695C252.538 136.692 247.878 138.543 242.183 138.343C236.674 137.602 232.445 134.254 229.853 128.281C227.167 122.185 225.485 114.963 224.837 106.46C224.174 97.9101 224.066 89.6848 224.405 81.552H224.42C224.405 80.1939 224.39 78.8511 224.39 77.4931C224.39 73.7121 224.513 69.885 224.76 66.0424C223.988 45.0234 215.007 27.3995 199.065 20.0074C195.253 18.2327 191.256 17.1372 187.167 16.6896C186.796 16.6588 186.441 16.6124 186.071 16.5815C185.809 16.5661 185.515 16.5506 185.222 16.5506C184.497 16.5197 183.756 16.4888 183.046 16.4888C171.41 16.782 160.839 20.7329 151.518 28.2176C142.181 35.7794 134.388 45.3164 128.385 56.9525C124.403 64.5761 121.378 72.3233 119.249 80.3173L112.906 95.1631C112.227 96.8915 111.502 98.5737 110.73 100.225C107.088 108.157 102.52 115.395 97.0415 121.83C92.7667 126.923 87.813 130.858 82.1802 133.976C76.5782 137.016 70.467 138.436 63.723 138.22C56.9019 137.818 51.0839 135.72 46.6239 131.985C42.0559 128.266 38.5374 123.497 36.0373 117.756C33.5219 112.062 31.8706 106.043 30.9292 99.9318L92.3655 98.6817C94.3409 98.4811 95.6835 97.4165 96.1002 95.4566L97.8749 86.7216C99.5416 78.4344 100.468 69.8233 100.668 60.6874C100.745 51.6594 99.4181 42.94 96.6095 34.73C93.8162 26.4274 88.8161 19.4828 81.6555 13.8808C75.6368 9.31283 68.8003 6.61206 61.3156 5.67068C53.8463 4.83734 46.6857 5.87144 39.8337 8.89619C28.1977 14.5136 19.0926 23.3253 12.5492 35.3626C5.92875 47.4153 1.96261 60.8107 0.527402 75.6258C-0.830648 90.3329 0.419389 104.67 4.44724 118.482C8.50596 132.263 15.2345 143.791 24.8952 153.05C34.5558 162.171 47.1024 167.263 62.6582 168.189C74.0782 168.498 84.5568 166.337 94.202 161.569C103.755 156.8 112.258 150.164 119.619 141.553C119.743 141.399 119.866 141.26 119.99 141.105C121.116 139.794 122.196 138.436 123.246 137.078C125.591 140.997 128.446 144.531 131.888 147.68C137.721 152.865 144.666 155.751 152.83 156.399C162.49 156.507 171.318 153.498 179.188 147.587C186.843 141.738 193.309 135.118 198.509 127.71C198.587 128.065 198.664 128.389 198.726 128.744C199.158 130.426 199.621 132.062 200.13 133.621C202.861 142.078 206.92 149.393 212.46 155.612C218.896 162.865 228.001 167.063 239.745 168.344C248.171 168.915 256.026 167.572 263.125 164.131C266.782 162.341 270.177 160.072 273.326 157.371C279.622 163.421 288.033 167.032 298.712 168.158C307.138 168.729 314.993 167.387 322.092 163.945C329.098 160.504 335.24 155.411 340.333 148.606C346.506 139.994 350.735 130.365 352.926 119.747C355.133 109.13 355.904 98.543 355.318 88.0644L355.256 88.0026L355.287 87.9717L355.256 87.9254ZM31.8552 67.0144C31.886 66.536 31.9323 66.0267 31.9786 65.4248C32.5187 58.6346 33.9539 52.9403 36.2997 48.326C38.6917 43.758 41.5467 40.3474 44.8801 38.1868C48.2135 35.9646 51.6549 35.0539 55.0963 35.378C58.5686 35.6867 61.6705 37.3534 64.4021 40.3781C67.2571 43.8041 69.0472 47.8782 69.8188 52.7086C70.5905 57.5389 70.575 62.6318 69.788 67.9405L69.3867 70.6721C69.2787 71.2585 69.0318 71.6597 68.6305 71.7832C65.1274 72.8171 61.3927 73.6196 57.442 74.1289C53.4914 74.6536 49.5407 74.7152 45.6054 74.3911C41.6856 74.0362 37.9973 73.0796 34.6021 71.5209C34.2318 71.3203 33.8922 71.2122 33.6144 71.0424C32.9663 70.7955 32.5187 70.5641 32.2564 70.3172C31.994 70.0702 31.8243 69.7308 31.8089 69.237C31.7934 68.7586 31.8243 68.0021 31.9169 66.9835L31.8552 67.0144ZM184.127 93.543C178.401 105.364 171.565 114.716 163.586 121.661C162.351 122.71 160.885 123.729 159.126 124.763C157.351 125.812 155.7 126.337 154.141 126.337C152.691 126.136 151.348 125.195 150.083 123.435C148.848 121.568 147.922 119.917 147.382 118.343C144.882 110.133 144.789 101.213 147.305 91.3668C149.697 81.6135 153.107 73.2184 157.567 66.0578C160.16 61.6904 163.787 57.4309 168.247 53.1716C172.815 49.0203 177.66 46.7519 182.954 46.4433C187.012 46.5513 189.806 47.8783 191.256 50.4709C192.8 53.1716 193.509 56.3043 193.509 60.0389C192.784 70.6256 189.682 81.7063 184.096 93.5584H184.127V93.543Z" fill="#FF472D"/>
<path d="M841.701 118.019C841.16 117.031 840.296 116.367 839.216 116.028L838.336 115.765L837.626 115.565L816.978 109.315C815.913 108.975 814.925 109.099 813.969 109.654C813.012 110.086 812.333 110.982 811.916 112.077C810.62 116.954 808.32 121.584 805.434 126.337C802.425 130.967 798.706 134.207 794.477 136.043C793.721 136.352 792.965 136.584 792.163 136.723C788.474 137.433 784.462 136.275 780.079 133.189C775.634 129.655 772.27 124.763 769.894 118.497C767.872 112.941 766.344 107 765.48 100.904C765.403 100.194 765.31 99.5152 765.233 98.8362C765.202 98.5892 765.187 98.3115 765.156 98.08L777.239 97.8328L828.722 96.7835C830.774 96.5675 832.163 95.4874 832.58 93.4657L834.416 84.4222C836.114 75.8109 837.117 66.9064 837.333 57.4001C837.41 48.0326 836.037 38.9893 833.105 30.5015C830.188 21.8902 825.034 14.6679 817.595 8.88073C811.36 4.14298 804.261 1.34972 796.514 0.392915C788.767 -0.471299 781.329 0.608833 774.23 3.72617C762.177 9.52875 752.717 18.6956 745.927 31.165C739.044 43.6498 734.955 57.539 733.458 72.9251C732.794 79.916 732.732 86.8142 733.242 93.6353V94.9472C733.952 104.886 735.726 114.5 738.55 123.728C743.319 138.868 750.912 150.581 761.529 158.976C768.366 164.038 775.727 167.263 783.52 168.482C787.224 169.053 790.943 169.1 794.632 168.652C798.829 168.158 803.042 167.017 807.225 165.288C816.083 161.199 823.351 155.118 829.2 147.278C832.842 142.232 835.867 136.877 838.305 131.26C839.71 128.019 840.883 124.716 841.901 121.321C842.225 120.087 842.117 119.099 841.685 118.096V118.019H841.701ZM766.792 61.4435C766.838 60.9651 766.869 60.4558 766.915 59.8539C767.455 53.0637 768.891 47.369 771.236 42.7547C773.628 38.1868 776.483 34.7765 779.817 32.6159C783.15 30.3937 786.576 29.4831 790.033 29.8071C793.505 30.1158 796.592 31.7825 799.339 34.8072C802.194 38.2332 803.984 42.3073 804.755 47.1377C805.527 51.968 805.512 57.0605 804.709 62.3692L804.308 65.1008C804.2 65.6872 803.953 66.0884 803.552 66.2119C800.049 67.2459 796.314 68.0484 792.363 68.5576C788.397 69.0823 784.462 69.1443 780.527 68.8203C776.607 68.4653 772.949 67.5083 769.523 65.9497C769.153 65.749 768.829 65.6409 768.536 65.4712C767.903 65.2243 767.44 64.9928 767.178 64.7459C766.884 64.499 766.745 64.1595 766.73 63.6657C766.73 63.1873 766.73 62.4312 766.838 61.4126L766.776 61.4435H766.792Z" fill="#FF472D"/>
<path d="M1011.81 67.4466C1010.96 66.7059 1009.99 66.3664 1008.83 66.3664L986.009 67.1226C984.836 67.1226 983.972 67.5548 983.339 68.4036C982.706 69.1598 982.274 70.101 982.043 71.3047C979.697 85.6414 974.542 96.5829 966.718 104.083C958.894 111.583 949.696 115.765 939.202 116.83C928.708 117.787 918.106 115.765 907.612 110.719C915.853 107.617 923.569 103.435 930.73 98.1727C937.906 92.9411 943.909 86.6293 948.709 79.2217C954.172 70.5487 956.934 61.4437 957.073 51.9065C957.073 42.4927 953.971 33.4802 947.659 25.2393C941.641 17.8626 934.171 12.2915 925.159 8.64945C916.254 4.91481 906.841 2.55345 896.995 1.48861C887.041 0.531806 877.612 0.315888 868.707 0.856022C867.01 0.964049 865.605 1.05646 864.432 1.05646C861.547 1.16449 859.51 1.39622 858.352 1.68943C857.056 2.02894 856.207 2.76962 855.775 3.92705C855.343 5.20794 855.019 7.26037 854.71 10.0228C854.602 11.1956 854.37 12.5999 854.17 14.2049C851.778 33.2793 850.327 52.3384 849.849 71.4128C849.278 93.8515 850.019 116.275 852.117 138.714C852.92 147.371 853.907 156.029 855.111 164.717C855.327 165.797 855.883 166.754 856.716 167.402C857.565 168.035 858.537 168.251 859.695 168.158L882.303 165.165C883.383 164.964 884.34 164.424 884.988 163.56C885.621 162.711 885.837 161.754 885.729 160.581C884.448 151.044 883.383 141.414 882.55 131.754C892.828 138.93 904.387 143.652 917.242 146.136C930.097 148.575 942.628 148.714 954.727 146.337C972.089 142.618 985.546 134.13 995.33 120.858C1005.05 107.679 1010.95 90.8886 1013 70.3172C1013 69.2369 1012.66 68.28 1011.83 67.5238V67.4621L1011.81 67.4466ZM887.164 82.3854L884.417 81.8915C883.831 81.768 883.445 81.4592 883.306 80.9654C882.272 76.6752 881.47 72.061 880.96 67.1998C880.451 62.3386 880.374 57.4775 880.698 52.6317C881.053 47.8014 882.01 43.2797 883.569 39.0666C883.769 38.5882 883.877 38.2023 884.047 37.8474C884.294 37.0758 884.525 36.5201 884.772 36.1651C885.019 35.8102 885.359 35.6252 885.837 35.6098C886.315 35.5789 887.072 35.6404 888.106 35.733C888.584 35.7947 889.093 35.8412 889.695 35.9029C896.485 36.5665 902.18 38.3257 906.794 41.227C911.362 44.1437 914.742 47.6625 916.933 51.7983C919.156 55.9034 920.066 60.1008 919.742 64.3601C919.418 68.6195 917.767 72.4315 914.742 75.8112C911.331 79.3144 907.242 81.5518 902.427 82.4777C897.597 83.4345 892.504 83.4036 887.195 82.4159H887.18V82.3854H887.164Z" fill="#FF472D"/>
</svg>
