<svg width="1278" height="210" viewBox="0 0 1278 210" fill="none" xmlns="http://www.w3.org/2000/svg">
<path d="M564.891 169.588C563.918 168.615 562.652 168.05 561.133 168.05L500.136 169.179C503.621 114.976 501.674 60.9289 494.295 7.30996C494.022 5.77187 493.321 4.64257 492.212 3.82485C491.082 2.98766 489.856 2.5788 488.318 2.85137L458.938 7.0376C457.4 7.31017 456.271 7.87445 455.453 9.12049C454.616 10.2497 454.207 11.4763 454.48 13.0144C459.074 45.3143 461.313 77.2444 461.43 108.59C461.43 139.936 460.028 171.827 457.108 204.302C456.972 205.957 457.536 207.359 458.51 208.371C459.483 209.501 460.866 210.027 462.404 210.027L561.854 208.371C563.392 208.371 564.638 207.826 565.611 206.716C566.585 205.743 567.013 204.478 567.013 203.095L566.585 173.424C566.449 171.886 566.04 170.639 564.93 169.666H564.891V169.608V169.588Z" fill="#DF3A22"/>
<path d="M744.77 93.6771C737.235 89.3549 729.155 86.2977 720.374 84.4871C719.128 84.2145 717.707 83.942 716.188 83.65C711.048 82.8128 705.869 81.567 700.321 80.0289C694.908 78.4909 690.839 76.271 688.211 73.3506C685.972 70.1576 685.018 66.1083 685.427 61.0852C685.855 56.1983 687.666 51.6035 691.014 47.437C694.383 43.2511 699.23 40.895 705.636 40.3109C713.852 40.1746 719.557 42.5498 722.905 47.5535C726.274 52.5766 728.045 58.8266 728.318 66.3418C728.454 67.7436 729.019 69.0089 729.973 69.9629C731.102 70.8001 732.329 71.365 733.867 71.2092L763.519 69.8075C764.92 69.6712 766.186 69.1062 767.14 67.977C767.977 67.0035 768.542 65.7381 768.542 64.2195C767.997 52.9467 765.485 42.6476 761.007 32.8739C756.549 23.256 749.462 15.312 739.688 9.0623C725.904 0.982461 710.99 -1.64573 695.239 0.982651C682.136 3.76679 671.545 9.47144 663.192 18.1159C654.704 26.7603 649.272 36.9038 646.488 48.6244C643.82 60.1893 644.541 71.8904 648.435 83.5721C652.056 93.3068 656.923 100.705 662.92 105.729C669.053 110.869 675.867 114.646 683.674 117.001C691.326 119.357 699.542 121.46 708.07 122.998C709.471 123.27 711.009 123.543 712.392 123.835C720.472 125.49 726.468 128.858 730.362 133.842C734.256 138.982 735.502 145.68 734.12 154.052C732.718 160.73 729.233 165.772 723.937 168.829C718.525 171.886 712.664 173.151 706.103 172.586C696.368 171.34 689.243 167.291 684.648 160.185C680.189 153.059 677.97 144.862 677.97 135.4C677.97 133.862 677.425 132.616 676.432 131.643C675.302 130.669 674.076 130.104 672.674 130.104L643.022 130.24C641.62 130.24 640.355 130.786 639.401 131.779C638.271 132.752 637.863 134.018 637.746 135.536C637.746 149.34 640.53 162.015 646.098 173.852C651.511 185.573 660.175 195.171 672.012 202.687C685.115 210.338 698.88 213.823 713.521 212.869C728.006 211.896 740.973 207.028 752.246 198.092C763.382 189.311 770.644 176.928 773.818 160.905C777.011 142.934 773.682 126.366 763.635 111.297C758.496 103.918 752.09 98.0576 744.711 93.5991H744.75V93.6771H744.77Z" fill="#DF3A22"/>
<path d="M620.36 63.6742C619.386 63.0122 618.121 62.6617 616.602 62.6617H586.95C585.412 62.6617 584.166 63.0317 583.192 63.6742C582.219 64.3946 581.654 65.1539 581.654 66.1663V206.055C581.654 207.067 582.199 207.904 583.192 208.547C584.185 209.189 585.431 209.559 586.95 209.559H616.602C618.14 209.559 619.386 209.189 620.36 208.547C621.489 207.885 621.898 207.067 621.898 206.055V66.1663C621.898 65.1539 621.469 64.3946 620.36 63.6742Z" fill="#DF3A22"/>
<path d="M584.847 0.690674H618.724C620.496 0.690674 621.917 2.11174 621.917 3.88346V34.0222C621.917 35.7939 620.496 37.2154 618.724 37.2154H584.847C583.075 37.2154 581.654 35.7939 581.654 34.0222V3.88346C581.654 2.11174 583.075 0.690674 584.847 0.690674Z" fill="#DF3A22"/>
<path d="M914.719 108.376C913.667 107.461 912.46 106.974 911.175 106.974L883.315 108.221C881.874 108.376 880.725 108.902 879.81 109.836C878.914 110.771 878.525 111.939 878.525 113.38C878.759 119.006 878.72 124.769 878.292 130.396C877.844 136.179 876.656 142.603 874.67 149.729C872.568 156.855 869.394 162.91 865.169 167.953C860.944 172.995 855.064 175.332 847.841 175.04C840.891 174.105 835.595 169.9 832.324 162.346C828.936 154.694 826.814 145.563 825.997 134.835C825.159 123.971 824.984 113.497 825.451 103.158C825.919 92.8006 826.464 84.4288 827.262 77.9844L900.72 79.1523C902.142 79.1523 903.349 78.7046 904.225 77.7895C905.276 76.855 905.627 75.6677 905.743 74.2464L906.211 46.4634C906.152 45.0227 905.646 43.8737 904.828 42.8029C903.894 41.9073 902.726 41.4012 901.285 41.4207L832.266 40.3303L837.172 12.4888C837.406 11.0481 837.133 9.87995 836.452 8.65337C835.653 7.64096 834.602 6.99839 833.278 6.62847L805.826 1.58617C804.502 1.35254 803.237 1.62487 802.166 2.3063C800.978 3.10455 800.375 4.17562 799.985 5.48007C794.904 30.9462 791.146 56.7041 788.829 82.6374C787.7 94.3386 787.272 107.15 787.622 121.324C787.778 130.046 788.518 138.612 789.803 147.043C789.803 147.237 789.842 147.374 789.881 147.549C790.718 152.689 791.75 157.79 793.035 162.833C793.171 163.397 793.366 163.981 793.482 164.546C797.143 176.85 802.945 187.325 811.005 196.008C811.959 197.06 812.991 198.092 814.023 199.065C819.065 203.855 824.887 207.515 831.506 210.085C835.595 211.409 839.995 212.304 844.765 212.811C851.755 213.278 858.413 212.713 864.721 211.02C867.992 210.124 871.185 208.956 874.242 207.476C883.081 203.134 890.83 196.709 897.255 188.123C905.082 177.259 910.377 165.11 913.181 151.715C915.965 138.32 916.919 124.964 916.16 111.744C916.16 110.303 915.614 109.155 914.641 108.357L914.738 108.318V108.376H914.719Z" fill="#DF3A22"/>
<path d="M448.191 110.927C448.171 109.486 447.626 108.337 446.672 107.539C445.621 106.624 444.414 106.118 443.129 106.137L415.268 107.422C413.827 107.558 412.679 108.104 411.764 109.038C410.868 109.973 410.479 111.16 410.479 112.582C410.712 118.208 410.673 123.971 410.245 129.617C409.797 135.38 408.61 141.825 406.643 148.931C404.521 156.057 401.367 162.112 397.122 167.155C392.898 172.197 387.018 174.533 379.795 174.241C372.863 173.307 367.548 169.101 364.277 161.547C360.89 153.896 358.768 144.765 357.95 134.037C357.113 123.173 356.937 112.698 357.405 102.36C357.891 92.0024 358.417 83.6107 359.235 77.1858L432.693 78.3541C434.134 78.3346 435.302 77.8869 436.198 76.9719C437.249 76.0373 437.619 74.8496 437.736 73.4283L438.203 45.6453C438.184 44.2046 437.639 43.0561 436.821 42.0047C435.886 41.1091 434.699 40.603 433.277 40.6225L364.277 39.5321L369.184 11.6906C369.417 10.2499 369.145 9.08177 368.463 7.85519C367.646 6.84278 366.614 6.20021 365.29 5.83029L337.838 0.787523C336.514 0.55389 335.248 0.826691 334.197 1.50812C333.029 2.30637 332.406 3.3575 332.017 4.68142C326.935 30.167 323.177 55.9059 320.841 81.8392C319.712 93.5404 319.284 106.371 319.653 120.525C319.887 134.796 321.717 148.639 325.066 162.053C325.202 162.657 325.377 163.202 325.533 163.767C324.677 165.052 323.781 166.259 322.827 167.408C318.602 172.45 312.722 174.786 305.538 174.533C298.587 173.599 293.253 169.374 289.982 161.84C286.594 154.149 284.472 145.037 283.654 134.309C282.817 123.523 282.681 113.146 283.109 102.886H283.129C283.109 101.173 283.09 99.4785 283.09 97.7651C283.09 92.9951 283.245 88.1668 283.557 83.3189C282.583 56.8015 271.252 34.5672 251.14 25.2413C246.331 23.0023 241.289 21.6202 236.129 21.0556C235.662 21.0166 235.214 20.9581 234.747 20.9191C234.416 20.8997 234.046 20.8802 233.676 20.8802C232.761 20.8412 231.827 20.8022 230.931 20.8022C216.251 21.1721 202.914 26.1565 191.155 35.5992C179.376 45.1393 169.544 57.1712 161.97 71.8511C156.947 81.4691 153.131 91.243 150.444 101.328L142.442 120.058C141.586 122.238 140.671 124.36 139.697 126.444C135.102 136.451 129.339 145.582 122.427 153.701C117.034 160.126 110.785 165.091 103.678 169.024C96.6111 172.859 88.9011 174.65 80.3929 174.378C71.7874 173.872 64.4474 171.224 58.8207 166.512C53.0577 161.82 48.6187 155.804 45.4647 148.561C42.2911 141.377 40.2079 133.784 39.0203 126.074L116.528 124.497C119.02 124.244 120.714 122.901 121.24 120.428L123.479 109.408C125.582 98.9527 126.75 88.089 127.003 76.5631C127.1 65.1734 125.426 54.173 121.882 43.8153C118.358 33.3407 112.05 24.5794 103.016 17.512C95.4234 11.749 86.7984 8.34172 77.3557 7.15408C67.9325 6.10273 58.8986 7.40736 50.2542 11.2234C35.5742 18.3103 24.0872 29.4272 15.8321 44.6134C7.47971 59.819 2.47603 76.7187 0.66537 95.4094C-1.04794 113.964 0.5291 132.051 5.61064 149.476C10.7311 166.862 19.2198 181.406 31.4077 193.088C43.5956 204.594 59.4243 211.019 79.0495 212.187C93.457 212.577 106.677 209.851 118.845 203.835C130.897 197.819 141.624 189.447 150.911 178.583C151.067 178.388 151.223 178.213 151.379 178.018C152.8 176.363 154.163 174.65 155.487 172.937C158.446 177.882 162.048 182.341 166.39 186.312C173.749 192.854 182.51 196.495 192.81 197.313C204.998 197.449 216.134 193.653 226.064 186.196C235.721 178.817 243.878 170.464 250.439 161.119C250.537 161.567 250.634 161.975 250.712 162.423C251.257 164.545 251.841 166.609 252.484 168.576C255.93 179.245 261.05 188.474 268.04 196.32C276.159 205.471 287.646 210.766 302.462 212.382C313.092 213.103 323.002 211.409 331.958 207.067C336.572 204.809 340.856 201.946 344.828 198.539C352.771 206.171 363.382 210.727 376.855 212.148C387.485 212.869 397.395 211.175 406.351 206.833C415.19 202.492 422.939 196.067 429.364 187.481C437.152 176.617 442.486 164.468 445.251 151.073C448.035 137.678 449.009 124.322 448.269 111.102L448.191 111.024L448.23 110.985L448.191 110.927ZM40.1885 84.5453C40.2274 83.9417 40.2858 83.2992 40.3442 82.5399C41.0256 73.9733 42.8363 66.7894 45.7956 60.968C48.8134 55.205 52.4153 50.9021 56.6207 48.1764C60.8261 45.3728 65.1678 44.224 69.5095 44.6328C73.8901 45.0222 77.8035 47.1249 81.2496 50.9409C84.8515 55.2632 87.1099 60.4031 88.0834 66.497C89.0569 72.591 89.0374 79.0161 88.0444 85.7136L87.5382 89.1598C87.4019 89.8996 87.0904 90.4058 86.5842 90.5615C82.1646 91.866 77.453 92.8784 72.4688 93.5209C67.4847 94.1829 62.5005 94.2606 57.5358 93.8518C52.5905 93.404 47.9373 92.1971 43.654 90.2307C43.1868 89.9776 42.7584 89.8412 42.408 89.627C41.5902 89.3155 41.0256 89.0235 40.6946 88.712C40.3636 88.4005 40.1495 87.9723 40.1301 87.3493C40.1106 86.7457 40.1495 85.7913 40.2663 84.5063L40.1885 84.5453ZM232.294 118.014C225.071 132.927 216.446 144.726 206.38 153.487C204.822 154.811 202.973 156.096 200.753 157.4C198.514 158.724 196.431 159.386 194.465 159.386C192.634 159.133 190.941 157.945 189.344 155.726C187.787 153.37 186.618 151.287 185.937 149.301C182.783 138.943 182.666 127.69 185.84 115.268C188.857 102.963 193.16 92.3723 198.787 83.3384C202.058 77.8286 206.633 72.4548 212.26 67.0812C218.023 61.8439 224.136 58.9822 230.814 58.5928C235.935 58.7291 239.459 60.4032 241.289 63.6741C243.236 67.0812 244.131 71.0334 244.131 75.745C243.216 89.1011 239.303 103.081 232.255 118.033H232.294V118.014Z" fill="#DF3A22"/>
<path d="M1061.89 148.892C1061.21 147.646 1060.12 146.809 1058.75 146.38L1057.64 146.05L1056.75 145.797L1030.7 137.912C1029.36 137.483 1028.11 137.639 1026.9 138.34C1025.69 138.885 1024.84 140.014 1024.31 141.397C1022.68 147.549 1019.78 153.39 1016.14 159.386C1012.34 165.227 1007.65 169.315 1002.31 171.632C1001.36 172.022 1000.4 172.314 999.392 172.489C994.738 173.385 989.676 171.925 984.147 168.031C978.54 163.572 974.295 157.4 971.297 149.496C968.747 142.487 966.819 134.991 965.729 127.301C965.631 126.405 965.515 125.548 965.417 124.692C965.378 124.38 965.359 124.03 965.32 123.738L980.565 123.426L1045.51 122.102C1048.1 121.829 1049.86 120.467 1050.38 117.916L1052.7 106.507C1054.84 95.643 1056.11 84.4091 1056.38 72.4159C1056.48 60.5979 1054.74 49.1889 1051.04 38.4807C1047.36 27.6167 1040.86 18.505 1031.48 11.2039C1023.61 5.22681 1014.66 1.70283 1004.88 0.495725C995.108 -0.594566 985.724 0.768127 976.768 4.70096C961.562 12.0215 949.628 23.5864 941.061 39.3178C932.378 55.0686 927.218 72.5912 925.33 92.0023C924.492 100.822 924.414 109.525 925.057 118.13V119.785C925.953 132.324 928.192 144.453 931.754 156.096C937.771 175.195 947.35 189.973 960.745 200.564C969.37 206.95 978.657 211.019 988.489 212.557C993.161 213.278 997.853 213.336 1002.51 212.772C1007.8 212.149 1013.12 210.708 1018.39 208.527C1029.57 203.368 1038.74 195.697 1046.12 185.806C1050.71 179.44 1054.53 172.684 1057.61 165.597C1059.38 161.508 1060.86 157.342 1062.14 153.059C1062.55 151.501 1062.41 150.255 1061.87 148.99V148.892H1061.89ZM967.384 77.5171C967.442 76.9136 967.481 76.271 967.539 75.5117C968.221 66.9451 970.032 59.7607 972.991 53.9394C976.009 48.1764 979.611 43.874 983.816 41.1483C988.021 38.3447 992.344 37.1958 996.705 37.6047C1001.09 37.9941 1004.98 40.0968 1008.44 43.9128C1012.05 48.235 1014.31 53.3749 1015.28 59.4689C1016.25 65.5628 1016.23 71.9875 1015.22 78.685L1014.71 82.1311C1014.58 82.871 1014.27 83.3771 1013.76 83.5329C1009.34 84.8373 1004.63 85.8498 999.645 86.4923C994.641 87.1543 989.676 87.2325 984.712 86.8236C979.766 86.3758 975.152 85.1685 970.83 83.2021C970.363 82.949 969.954 82.8126 969.584 82.5984C968.786 82.2869 968.201 81.9949 967.87 81.6834C967.501 81.3719 967.325 80.9436 967.306 80.3206C967.306 79.7171 967.306 78.7631 967.442 77.4781L967.364 77.5171H967.384Z" fill="#DF3A22"/>
<path d="M1276.5 85.0906C1275.43 84.1561 1274.2 83.7279 1272.74 83.7279L1243.95 84.6818C1242.47 84.6818 1241.38 85.2271 1240.58 86.298C1239.78 87.252 1239.24 88.4394 1238.94 89.958C1235.98 108.045 1229.48 121.849 1219.61 131.311C1209.74 140.773 1198.14 146.05 1184.9 147.393C1171.66 148.6 1158.28 146.05 1145.04 139.683C1155.44 135.77 1165.17 130.494 1174.21 123.855C1183.26 117.255 1190.84 109.291 1196.89 99.9461C1203.78 89.0042 1207.27 77.5173 1207.44 65.4852C1207.44 53.6088 1203.53 42.2386 1195.57 31.8419C1187.97 22.5354 1178.55 15.507 1167.18 10.9122C1155.95 6.20055 1144.07 3.22146 1131.65 1.87806C1119.09 0.670954 1107.19 0.398552 1095.96 1.07998C1093.82 1.21627 1092.05 1.33286 1090.57 1.33286C1086.93 1.46915 1084.36 1.76149 1082.9 2.13141C1081.26 2.55974 1080.19 3.49418 1079.64 4.95439C1079.1 6.57036 1078.69 9.15971 1078.3 12.6447C1078.17 14.1244 1077.87 15.8961 1077.62 17.9209C1074.6 41.9852 1072.77 66.0301 1072.17 90.0944C1071.45 118.403 1072.38 146.692 1075.03 175.001C1076.04 185.923 1077.29 196.846 1078.81 207.807C1079.08 209.17 1079.78 210.377 1080.83 211.195C1081.9 211.993 1083.13 212.265 1084.59 212.148L1113.11 208.372C1114.48 208.118 1115.68 207.437 1116.5 206.347C1117.3 205.276 1117.57 204.069 1117.44 202.589C1115.82 190.557 1114.48 178.408 1113.42 166.22C1126.39 175.274 1140.97 181.231 1157.19 184.365C1173.41 187.442 1189.22 187.617 1204.48 184.619C1226.39 179.927 1243.36 169.218 1255.71 152.475C1267.97 135.848 1275.41 114.665 1278 88.7122C1278 87.3493 1277.57 86.1421 1276.52 85.1881V85.1101L1276.5 85.0906ZM1119.25 103.937L1115.78 103.314C1115.04 103.159 1114.55 102.769 1114.38 102.146C1113.07 96.7334 1112.06 90.9122 1111.42 84.7793C1110.78 78.6464 1110.68 72.5136 1111.09 66.4002C1111.54 60.3063 1112.74 54.6016 1114.71 49.2864C1114.96 48.6829 1115.1 48.1961 1115.31 47.7483C1115.62 46.7748 1115.92 46.0737 1116.23 45.6259C1116.54 45.1781 1116.97 44.9448 1117.57 44.9253C1118.17 44.8864 1119.13 44.9639 1120.43 45.0807C1121.04 45.1586 1121.68 45.2172 1122.44 45.2951C1131.01 46.1323 1138.19 48.3517 1144.01 52.012C1149.77 55.6917 1154.04 60.131 1156.8 65.3488C1159.61 70.5277 1160.75 75.8231 1160.35 81.1967C1159.94 86.5703 1157.85 91.3796 1154.04 95.6434C1149.73 100.063 1144.58 102.886 1138.5 104.054C1132.41 105.261 1125.98 105.222 1119.28 103.976H1119.27V103.937H1119.25Z" fill="#DF3A22"/>
</svg>
